# xmcd
#
# Track frame offsets:
#	182
#	25917
#	58712
#	101847
#	133087
#	156215
#
# Disc length: 2697
#
# Revision: 3
# Processed by: cddbd v1.5.1PL0 Copyright (c) Steve Scherf et al.
# Submitted via: CDValet v3.31 - Copyright (c) 1997 Greg Leichner
# Normalized: r2:DSETVAR1
#
DISCID=4e0a8706
DTITLE=Various Artist - Jazz Super Hits Of The '60s
DYEAR=1900
DGENRE=
TTITLE0=Donald Byrd - Cristo Redentor
TTITLE1=Horace Silver - Song For My Father
TTITLE2=Art Blakley and The Jazz Messangers - Moanin'
TTITLE3=Lou Donaldson - Alligator Bogaloo
TTITLE4=Cannonball Adderley - Mercy, Mercy, Mercy
TTITLE5=Lee Morgan - The Sidewinder
EXTD=
EXTT0=
EXTT1=
EXTT2=
EXTT3=
EXTT4=
EXTT5=
PLAYORDER=
